<svg xmlns="http://www.w3.org/2000/svg" xmlns:xlink="http://www.w3.org/1999/xlink" fill="#000000" height="52.9" preserveAspectRatio="xMidYMid meet" viewBox="1.4 29.7 97.3 52.9" width="97.3"><g id="change1_1"><path d="m 51.193633,82.368183 c -0.492786,-0.06523 -0.801036,-0.211431 -1.58587,-0.752156 -0.519842,-0.358161 -1.044374,-0.841868 -1.335,-1.231111 l -0.13988,-0.187345 -0.622056,0.562177 c -1.183134,1.069254 -1.706876,1.435662 -2.334079,1.632955 -0.683339,0.214943 -1.012595,0.174357 -2.312037,-0.28497 -1.758409,-0.621572 -2.429924,-0.975357 -3.165133,-1.667569 l -0.606375,-0.570908 -0.556364,-0.03464 C 36.463846,79.70547 34.68252,78.709164 33.519568,77.028422 33.391284,76.843019 33.219261,76.488371 33.1373,76.240317 l -0.149023,-0.451013 -0.762073,0.05672 C 30.7667,75.954628 29.697485,75.56028 28.200262,74.36117 c -0.72228,-0.578467 -1.269885,-1.27747 -1.902978,-2.4291 -0.333775,-0.607155 -0.691023,-1.307619 -0.793885,-1.556586 -0.102866,-0.248966 -0.205312,-0.470214 -0.227668,-0.491662 -0.02236,-0.02145 -0.279281,-0.04263 -0.570942,-0.04709 -1.231135,-0.0188 -3.175597,-1.123973 -3.751929,-2.132488 -0.21156,-0.370204 -0.388768,-0.997189 -0.40154,-1.420692 -0.0073,-0.23995 -0.02798,-0.262335 -0.41467,-0.447576 C 18.55838,65.079925 16.949849,64.009904 13.822098,61.635424 11.134872,59.595377 9.8825735,58.731925 8.4446232,57.927694 7.7873378,57.560081 6.4175124,56.920987 6.0769858,56.823067 5.8201745,56.749228 2.4807501,55.353833 1.9230291,55.087326 1.6548571,54.959179 1.434748,54.820732 1.4338961,54.779667 c -0.00196,-0.09458 0.073342,-0.07215 0.9871323,0.294093 0.4127604,0.165427 1.7977263,0.624899 3.0777059,1.02104 1.27998,0.396142 2.6900014,0.854871 3.1333851,1.019398 1.8733046,0.695135 3.4060916,1.575042 4.5318956,2.601565 0.60916,0.555438 2.495203,2.060451 4.378058,3.493574 1.074277,0.817678 2.824497,1.920231 3.776801,2.379199 1.220166,0.588064 2.60381,1.036043 3.674864,1.189802 l 0.274422,0.0394 0.143798,-0.368366 c 0.07909,-0.202603 0.387086,-0.827135 0.684431,-1.387852 0.625649,-1.179811 0.858823,-1.76269 0.971386,-2.428239 0.06389,-0.377832 0.125655,-0.52483 0.298633,-0.710868 0.26616,-0.286255 0.737245,-0.481555 1.429064,-0.592451 1.240532,-0.198851 1.948861,-0.08126 2.825672,0.469106 0.678731,0.42603 1.611053,1.358112 1.832505,1.832027 0.170708,0.365326 0.410833,1.171334 0.505496,1.696756 0.02839,0.157559 0.0773,0.285939 0.108689,0.285287 0.09342,-0.0019 0.29394,-0.341917 0.566715,-0.960865 0.282967,-0.642072 0.917085,-1.473188 1.334306,-1.748835 0.374797,-0.247617 0.670303,-0.286718 1.201073,-0.158926 1.706867,0.410957 3.261085,1.728477 4.118152,3.490984 0.469163,0.964806 0.519688,1.295301 0.37981,2.48444 -0.03329,0.283041 -0.02289,0.321849 0.08562,0.319596 0.06793,-0.0014 0.235658,-0.08378 0.372728,-0.183037 l 0.249221,-0.180473 0.70351,0.08886 c 0.386933,0.04887 0.858635,0.146316 1.048228,0.216549 l 0.344715,0.127684 0.382847,-0.298938 c 0.462528,-0.361157 1.246078,-0.778172 1.60204,-0.852626 l 0.260003,-0.05437 -0.18225,0.352048 c -0.100231,0.193629 -0.462381,0.661629 -0.804769,1.040003 l -0.622524,0.687953 0.147355,0.198112 c 0.272387,0.366211 0.90897,1.704592 1.093483,2.298986 0.330067,1.063288 0.434894,1.746419 0.468542,3.053386 l 0.03141,1.219753 1.003681,1.465063 c 1.036567,1.513071 1.404028,2.000873 1.861555,2.471175 0.538534,0.553565 1.954101,0.768603 3.11242,0.472804 0.259106,-0.06615 0.787436,-0.281704 1.174065,-0.478967 0.633316,-0.323132 0.769051,-0.427981 1.370067,-1.058251 0.533078,-0.559037 0.717701,-0.80762 0.918898,-1.237236 l 0.251797,-0.53764 -0.243242,-0.437398 c -0.345712,-0.62167 -1.194865,-1.853015 -2.26417,-3.28325 -1.122746,-1.501711 -1.722671,-2.380028 -2.165701,-3.170682 -0.245929,-0.438896 -0.497305,-0.760246 -0.935983,-1.196525 -0.563265,-0.560185 -1.034224,-1.190263 -0.952976,-1.274953 0.08972,-0.09351 0.335546,0.07647 0.736723,0.509445 0.610597,0.658981 0.85637,0.708667 1.025959,0.207403 0.0895,-0.264562 0.13152,-0.287308 0.258891,-0.140158 0.06072,0.07014 0.07555,0.22124 0.04948,0.50408 l -0.03722,0.403911 0.60063,0.615694 c 1.311795,1.344702 2.498,3.08284 3.199953,4.688863 0.409556,0.937043 1.946995,2.16476 3.019614,2.411308 0.347142,0.07983 0.625454,0.02888 1.560509,-0.285489 1.209724,-0.406719 2.055417,-0.942086 2.778857,-1.759168 0.547019,-0.617831 0.781425,-1.103273 0.771179,-1.597087 -0.009,-0.43223 -0.206282,-1.012946 -0.498052,-1.465811 -0.364135,-0.565187 -1.470291,-1.951809 -1.910776,-2.395257 -0.572313,-0.576159 -0.934096,-1.080109 -1.746829,-2.433254 -0.375277,-0.624812 -0.825777,-1.33094 -1.001115,-1.569177 -0.458398,-0.622837 -1.134155,-1.243208 -1.82143,-1.672146 -0.594546,-0.371065 -0.887433,-0.663528 -0.772558,-0.771434 0.115525,-0.108517 0.482383,0.05327 0.882931,0.389365 0.431724,0.362255 0.515677,0.349739 0.338613,-0.05048 -0.116105,-0.262437 -0.151859,-0.570894 -0.06612,-0.570409 0.0279,1.73e-4 0.153601,0.207974 0.279317,0.461811 0.190183,0.384025 0.34057,0.559615 0.895594,1.045684 1.64109,1.437212 1.68854,1.490769 2.309493,2.60661 1.123555,2.019008 1.851605,3.039525 2.858058,4.006164 0.886039,0.850987 1.165157,1.026887 1.605063,1.01152 0.369257,-0.01296 0.631866,-0.131847 1.323458,-0.599464 0.408887,-0.276464 0.891587,-0.479878 0.96702,-0.407508 0.08469,0.08125 -0.182354,0.466904 -0.543306,0.784579 -0.706689,0.621969 -1.214447,1.171872 -1.211538,1.312101 0.0079,0.38023 0.78814,0.828641 1.633333,0.938675 0.41002,0.05338 0.617795,0.04251 1.16667,-0.06101 1.286702,-0.242688 2.199456,-0.677601 2.769656,-1.319698 0.489582,-0.551323 0.601851,-0.908694 0.678762,-2.16078 0.09463,-1.540351 -0.09592,-3.069996 -0.548986,-4.406999 C 71.378636,66.271924 71.253916,66.07808 70.60593,65.282689 70.193949,64.776996 69.296167,63.662233 68.610852,62.805437 67.925536,61.94864 66.961399,60.781255 66.468323,60.21125 65.38534,58.959298 63.338247,56.985256 62.374832,56.263839 c -0.43833,-0.328234 -0.704366,-0.573728 -0.707024,-0.652441 -0.0036,-0.103887 0.02878,-0.118787 0.182674,-0.08427 0.102805,0.02306 0.278574,0.05713 0.390586,0.07573 0.112011,0.0186 0.253897,0.07583 0.315282,0.127257 0.15167,0.127075 1.230574,0.551806 1.277492,0.502904 0.02065,-0.02153 -0.07986,-0.25619 -0.22336,-0.521467 -0.287203,-0.530933 -0.331836,-0.740217 -0.15126,-0.709311 0.06505,0.01118 0.3091,0.352177 0.564038,0.788233 1.237754,2.117083 2.923339,4.231325 4.794465,6.013744 0.776009,0.739216 0.836342,0.782213 1.031475,0.735093 0.311514,-0.07523 0.914212,-0.510921 1.544851,-1.116782 0.976278,-0.93792 1.395109,-1.238518 1.399959,-1.004748 7.88e-4,0.04033 -0.263627,0.466865 -0.587699,0.947833 -0.324074,0.480968 -0.662306,1.043274 -0.751622,1.249568 -0.315318,0.728293 -0.316415,1.358474 -0.0034,1.932845 0.07582,0.139108 0.946923,1.018671 1.935787,1.954585 1.778357,1.683138 1.802842,1.703071 2.249109,1.830832 0.553145,0.158361 0.563924,0.158183 1.204181,-0.01978 0.94815,-0.263563 1.837754,-0.822809 2.822992,-1.774648 0.335814,-0.324436 0.419841,-0.45143 0.473587,-0.715801 0.128793,-0.63333 0.1319,-0.941628 0.01633,-1.605863 -0.17114,-0.983628 -0.47659,-1.81731 -0.928325,-2.53377 -0.214578,-0.340333 -0.585863,-1.038085 -0.825068,-1.550559 -0.977983,-2.095193 -1.928061,-3.294998 -3.647356,-4.60605 -0.729219,-0.556067 -2.825826,-1.96732 -3.625897,-2.440637 -1.355141,-0.801692 -2.905286,-2.073637 -5.651114,-4.636911 -1.943588,-1.814375 -3.044861,-2.772851 -4.030729,-3.508095 -1.410807,-1.052157 -3.128348,-1.964412 -4.138875,-2.198321 -0.712955,-0.165071 -1.272006,-0.347391 -2.554437,-0.83324 -1.401326,-0.530895 -2.294349,-0.809376 -2.948527,-0.919467 -0.635245,-0.106906 -1.634161,-0.09828 -2.15968,0.01865 -0.308447,0.06863 -0.432578,0.06559 -0.705131,-0.0173 -0.181929,-0.05532 -0.461824,-0.118048 -0.621985,-0.139412 -0.246295,-0.03281 -0.316051,-0.01448 -0.452257,0.118911 -0.08858,0.08674 -0.193854,0.268083 -0.233952,0.402987 -0.0401,0.134903 -0.148691,0.35341 -0.241318,0.485572 -0.560912,0.800328 -2.817107,2.928909 -3.330509,3.14213 -0.16602,0.06896 -0.587437,0.301496 -0.936479,0.516768 -0.761828,0.469857 -1.618563,0.896999 -1.941976,0.968213 -0.129648,0.02854 -0.447149,0.133682 -0.705556,0.233634 -0.389219,0.150549 -0.626365,0.190406 -1.382154,0.232309 -1.047146,0.05805 -1.567129,-0.02138 -2.295665,-0.350704 -0.616124,-0.278509 -1.599079,-1.188223 -1.861241,-1.722559 -0.104718,-0.213437 -0.227864,-0.387606 -0.273658,-0.387043 -0.104357,0.0013 -0.186595,-0.285412 -0.140075,-0.488315 0.04724,-0.205836 1.359309,-2.792371 1.848546,-3.643984 0.315354,-0.548933 0.369574,-0.685189 0.278197,-0.699122 -0.06243,-0.0095 -0.475635,0.0948 -0.918252,0.231834 -1.262295,0.39079 -2.002989,0.514562 -3.268088,0.546123 -1.201086,0.02992 -1.785182,-0.03399 -2.67856,-0.293282 -0.781837,-0.226921 -1.047623,-0.506707 -2.8731,-1.518079 -9.007283,-4.99034 -10.735976,-5.602308 -11.76998,-5.580857 -0.177377,0.0037 -2.889928,-1.101889 -2.996182,-1.184436 -1.03622,-0.805017 0.439002,-0.961959 0.412786,-1.026261 -0.041,-0.100551 2.34104,0.859151 2.511442,0.898055 0.6015,0.137279 1.721675,0.60289 3.611183,1.50087 2.441292,1.160209 2.910256,1.411122 5.344896,2.859721 3.637131,2.164074 5.390867,2.954538 7.162697,3.228455 0.812623,0.125633 2.468902,0.110736 3.416055,-0.03071 0.815599,-0.121805 1.93898,-0.373053 2.151526,-0.481199 0.199486,-0.101499 0.470462,-0.643103 0.968868,-1.936484 0.204435,-0.530511 0.501441,-1.203499 0.660015,-1.495533 0.591629,-1.08955 1.683229,-2.057149 2.960103,-2.623857 0.863621,-0.383292 1.768408,-0.641282 3.890938,-1.109456 1.627797,-0.359048 2.113411,-0.497594 3.564738,-1.017031 2.009229,-0.719114 2.505149,-0.82578 3.981736,-0.856413 2.081841,-0.04319 3.030038,0.223835 6.213641,1.749828 2.65956,1.274805 2.802425,1.331675 5.52908,2.200955 3.528258,1.124844 5.084618,1.678291 6.785624,2.413001 0.488122,0.210834 1.036445,0.41694 1.2185,0.458015 0.182043,0.0411 0.698225,0.255993 1.147062,0.477599 0.74626,0.368454 0.852002,0.402085 1.236192,0.393144 0.297934,-0.0069 0.48776,-0.05105 0.652623,-0.151673 0.12786,-0.07805 0.383482,-0.201142 0.568039,-0.273553 0.759016,-0.297797 1.876319,-0.969522 3.660952,-2.200976 1.037747,-0.71608 2.188239,-1.466852 2.556653,-1.668385 1.038087,-0.567866 2.711124,-1.12066 2.715758,-0.897321 9.15e-4,0.04209 -0.626588,0.407338 -1.394355,0.81168 -2.298132,1.210305 -3.946987,2.256399 -5.418533,3.437735 -0.631458,0.506922 -1.740554,1.524669 -1.782264,1.635467 -0.04517,0.119968 0.21429,0.392478 0.703266,0.738633 0.310987,0.220159 0.539094,0.437359 0.596334,0.567816 0.05098,0.116199 0.07889,0.225666 0.062,0.243261 -0.05866,0.06116 -3.945763,-1.707438 -4.766664,-2.168783 -0.203128,-0.114156 -0.600255,-0.293796 -0.882502,-0.399194 -0.282253,-0.105393 -1.082653,-0.440043 -1.77867,-0.743659 -2.935138,-1.280354 -4.08171,-1.648197 -7.017781,-2.251429 -2.39225,-0.491501 -3.314469,-0.847392 -5.341904,-2.061476 -0.605209,-0.362418 -1.354619,-0.771709 -1.66535,-0.909538 -0.60861,-0.269952 -1.462373,-0.496767 -1.85396,-0.49253 -0.133564,0.0014 -0.426346,-0.03768 -0.65064,-0.08693 -0.537609,-0.118066 -1.706922,-0.09103 -2.41012,0.0557 -0.309765,0.06464 -1.409422,0.419691 -2.443683,0.788991 -1.630435,0.582174 -2.028359,0.698136 -2.992658,0.872124 -1.161647,0.209598 -2.288429,0.472532 -2.37322,0.553796 -0.02725,0.02612 0.112625,0.164477 0.310836,0.307466 0.90374,0.651956 1.359065,1.2234 1.371058,1.72071 l 0.0048,0.196111 -0.200672,-0.26526 c -0.596333,-0.788251 -1.896174,-1.346286 -3.113959,-1.336849 -0.52876,0.0041 -0.552262,0.01141 -1.024818,0.318686 -1.344438,0.874222 -2.083956,1.82902 -2.262504,2.921143 -0.03991,0.244175 -0.03963,0.415148 8.18e-4,0.453909 0.03565,0.0342 0.282918,0.113482 0.549485,0.176191 0.957058,0.225121 1.273662,0.492435 1.280385,1.081034 0.0068,0.597378 -0.499537,1.486459 -1.980968,3.478218 -1.113434,1.496997 -1.318849,1.738858 -1.607525,1.892749 -0.182034,0.09704 -0.465649,0.305846 -0.630257,0.464018 -0.27634,0.26553 -0.296197,0.307492 -0.258962,0.547235 0.087,0.56016 0.749781,1.154949 1.460685,1.310826 0.565764,0.124055 1.872285,0.06411 2.553428,-0.117157 1.961787,-0.522065 4.009585,-1.952814 5.992044,-4.186494 1.077406,-1.213937 1.422249,-1.672519 1.660361,-2.208004 0.166994,-0.375556 0.196184,-0.527141 0.189661,-0.984965 -0.0043,-0.297603 -0.03629,-0.654679 -0.07121,-0.793497 -0.05701,-0.226561 -0.04973,-0.252683 0.07115,-0.25519 0.08382,-0.0017 0.241782,0.133136 0.418407,0.357247 0.352071,0.446733 0.921618,0.989458 1.300162,1.238927 0.237548,0.156551 0.356058,0.187532 0.690797,0.180589 0.222232,-0.0046 0.80877,0.03029 1.303418,0.07756 1.565489,0.149606 2.087436,-0.100417 2.442751,-1.17014 0.251214,-0.756323 0.720575,-1.656457 1.087704,-2.085981 0.323402,-0.378365 0.483031,-0.454338 0.639401,-0.304324 0.136486,0.130935 0.103417,0.261511 -0.265912,1.049905 -0.654975,1.398163 -0.84944,2.366838 -0.649746,3.236594 0.07406,0.322566 0.152325,0.4542 0.458933,0.771895 0.480513,0.497884 0.907568,0.690661 2.180535,0.984308 1.332382,0.307352 1.427462,0.34207 2.357062,0.860488 2.220311,1.238234 3.312643,2.083427 4.26018,3.296334 0.65558,0.839185 1.708603,1.669279 2.63533,2.077429 1.139934,0.502049 2.048571,0.487933 3.059123,-0.04754 1.053714,-0.558339 2.345682,-1.828789 2.917403,-2.868819 0.300739,-0.547085 0.492035,-0.742021 0.496923,-0.506387 0.0011,0.05278 -0.158059,0.520081 -0.353675,1.038437 -0.57028,1.511143 -1.141316,2.551383 -1.884229,3.432414 -0.201639,0.239126 -0.366066,0.46122 -0.365395,0.493537 0.0018,0.08604 0.117407,0.108841 1.460607,0.28806 1.09615,0.146256 1.397815,0.159332 2.945743,0.127688 1.659465,-0.03391 1.735146,-0.0413 2.006101,-0.193328 0.501036,-0.281281 0.802807,-0.174777 0.376377,0.132838 -0.777849,0.561117 -1.52835,0.741997 -3.895386,0.93884 -1.346212,0.111946 -1.67559,0.178539 -1.881742,0.380414 -0.207041,0.202752 -0.214694,0.61483 -0.015,0.806416 0.31614,0.30329 1.496763,0.750751 2.461292,0.932842 1.220292,0.230376 3.20716,0.173933 4.844441,-0.137619 0.766803,-0.145912 2.253327,-0.515114 2.526934,-0.627603 0.08019,-0.03298 0.118076,-0.01574 0.11953,0.05434 0.0026,0.124186 -0.720615,0.612058 -1.371037,0.924913 -0.710442,0.341728 -1.812554,0.70394 -3.054333,1.003813 -1.378792,0.332954 -1.331667,0.316992 -1.37557,0.465969 -0.0605,0.205308 0.09096,0.470069 0.533596,0.932748 0.886638,0.926786 1.473437,1.763726 2.70596,3.859456 0.707811,1.203546 0.712982,1.210135 1.027219,1.30998 0.173696,0.05519 0.439724,0.09713 0.591162,0.0932 0.494847,-0.01287 1.688884,-0.512636 3.761013,-1.574231 0.736406,-0.377271 2.289674,-1.085393 3.451708,-1.5736 2.575186,-1.081919 3.62007,-1.559587 4.624492,-2.114083 0.423085,-0.233565 0.860343,-0.436343 0.971684,-0.450616 0.111334,-0.01427 0.33899,-0.04763 0.50589,-0.07413 0.174609,-0.02772 0.347154,-0.01891 0.40638,0.02077 0.08779,0.05882 0.07849,0.08899 -0.0634,0.205319 -0.335027,0.274697 -1.868844,1.053877 -2.97935,1.513509 -1.11313,0.460716 -1.428726,0.596273 -3.990056,1.713825 -2.604128,1.136226 -4.655718,2.32906 -6.20878,3.609909 l -0.32754,0.270131 0.291835,0.826551 c 0.255622,0.723957 0.294032,0.906281 0.309464,1.468927 0.01721,0.627324 0.01074,0.657586 -0.277302,1.291235 -0.529812,1.165732 -1.342263,1.873088 -3.070251,2.673089 -0.868854,0.402251 -0.894443,0.409391 -1.492769,0.416516 -0.745124,0.0089 -1.269373,-0.132991 -2.295193,-0.62108 -0.40339,-0.191934 -0.774363,-0.348121 -0.824405,-0.347083 -0.05004,0.001 -0.227844,0.09669 -0.395126,0.212558 l -0.304152,0.210667 -0.0023,1.436379 c -0.0019,1.182222 -0.02594,1.532645 -0.135727,1.980408 -0.200344,0.816975 -0.478989,1.340648 -0.966132,1.815674 -1.500216,1.462891 -3.84162,1.958794 -5.670403,1.200977 -0.271629,-0.112555 -0.544455,-0.193813 -0.606283,-0.180575 -0.07857,0.01682 -0.151295,0.187654 -0.241543,0.567378 -0.07098,0.29882 -0.190479,0.666356 -0.265465,0.816754 -0.476248,0.955252 -1.446168,1.670537 -3.085016,2.275089 -0.58737,0.216678 -0.702104,0.236311 -1.449481,0.248083 -0.636913,0.0099 -0.984216,-0.02373 -1.613386,-0.156907 -0.594096,-0.125728 -0.824579,-0.149934 -0.88987,-0.09341 -0.04846,0.04195 -0.179143,0.333477 -0.2904,0.647841 -0.111261,0.31437 -0.290124,0.698287 -0.39748,0.853147 -0.51955,0.749464 -2.161037,1.784352 -3.335875,2.103133 -0.669042,0.181534 -1.96994,0.272849 -2.634276,0.184907 z m -6.283366,-1.182741 c 1.200672,-0.279331 2.241887,-1.187422 2.226241,-1.941604 -0.01029,-0.495798 -0.264728,-0.666685 -0.399506,-0.268309 -0.201624,0.595957 -0.961617,1.171953 -1.881492,1.42598 -0.470088,0.129819 -0.488722,0.130055 -0.751699,0.0097 -0.342399,-0.156741 -0.307771,-0.284035 0.07987,-0.293621 0.594485,-0.01493 1.521627,-0.763833 1.642674,-1.327307 0.08449,-0.393206 -0.04543,-4.95549 -0.159543,-5.60332 -0.05224,-0.296609 -0.174361,-0.818394 -0.271362,-1.159525 -0.390478,-1.373186 -0.785101,-1.745729 -2.239321,-2.11404 -0.630785,-0.159756 -0.699542,-0.141136 -0.778069,0.210648 -0.03749,0.167968 0.05066,0.275871 0.961845,1.177289 0.995954,0.985275 1.003515,0.995035 1.057588,1.365225 0.02996,0.20507 0.05202,0.80757 0.04904,1.338888 -0.0049,0.86374 -0.02248,1.002208 -0.1665,1.307662 -0.199397,0.422908 -0.473936,0.584664 -1.01148,0.595968 -0.997046,0.02068 -2.511325,-1.22989 -2.989437,-2.469366 l -0.153686,-0.39843 -0.142667,0.40391 c -0.330968,0.937004 -0.452296,1.758514 -0.460455,3.117729 -0.0092,1.539318 0.07494,2.11889 0.389337,2.68037 0.390993,0.698288 1.044815,1.133962 2.489428,1.658816 1.201803,0.436643 1.638447,0.485952 2.509198,0.283376 z m -6.658542,-2.688609 0.295053,-0.155558 -0.0085,-1.014683 c -0.0096,-1.148038 0.02939,-1.337759 0.669184,-3.254062 0.1988,-0.595454 0.417341,-1.315463 0.485635,-1.600021 0.06827,-0.284565 0.354196,-1.024507 0.635332,-1.64433 0.639701,-1.410356 0.678128,-1.541512 0.658147,-2.246346 -0.01453,-0.512248 -0.04847,-0.649813 -0.312229,-1.265032 -0.978479,-2.282346 -1.983964,-3.46185 -3.419895,-4.011776 -0.263838,-0.101042 -0.50178,-0.183258 -0.528765,-0.182699 -0.02698,5.4e-4 -0.115862,0.151699 -0.197506,0.335867 l -0.148444,0.334849 0.650358,0.821828 c 0.707157,0.893603 1.424366,1.617798 1.95958,1.978669 0.380507,0.256558 0.65764,0.605543 0.662382,0.834114 0.004,0.193903 -0.451626,1.365033 -0.755476,1.941766 -0.304939,0.5788 -0.85019,1.170722 -1.268923,1.377543 -0.326309,0.161172 -0.339896,0.162349 -0.638445,0.05537 -0.812303,-0.291063 -1.962335,-1.263915 -2.468156,-2.087895 -0.143754,-0.234178 -0.272493,-0.456971 -0.286087,-0.495095 -0.03826,-0.107313 -0.552981,0.165227 -0.817194,0.432697 -0.491689,0.497749 -0.745364,1.352431 -0.724841,2.442115 0.02289,1.214469 0.46303,2.245611 1.33175,3.119862 0.275747,0.277501 0.502039,0.537411 0.502872,0.577577 0.0038,0.183361 -0.163069,0.120557 -0.748606,-0.281747 -0.346356,-0.237974 -0.642086,-0.419804 -0.657177,-0.404073 -0.04454,0.04643 0.173315,0.756723 0.360499,1.17543 0.0953,0.213172 0.301057,0.67417 0.45724,1.024441 0.332069,0.74473 0.538622,1.001322 1.17211,1.45606 1.14209,0.819838 2.414469,1.117709 3.140119,0.735121 z m -6.130014,-3.784258 c 0.129084,-0.118168 0.233644,-0.265653 0.232356,-0.327743 -0.0013,-0.06209 -0.08683,-0.414904 -0.19011,-0.784021 -0.441363,-1.577537 -0.204177,-3.296155 0.742728,-5.381719 0.459174,-1.01133 0.552535,-1.484309 0.430024,-2.178556 -0.0462,-0.261854 -0.135179,-0.620118 -0.197713,-0.796139 -0.274902,-0.773815 -1.125427,-2.03406 -1.632374,-2.418731 -0.678712,-0.515007 -1.764421,-0.785098 -2.135026,-0.531132 -0.162585,0.111418 -0.227013,0.115801 -0.687691,0.0468 -0.279567,-0.04187 -0.525282,-0.05844 -0.546033,-0.03679 -0.09051,0.09434 0.08158,0.333797 0.378267,0.526359 0.176651,0.114653 0.492956,0.359393 0.702899,0.543868 0.209945,0.184474 0.801523,0.609174 1.314622,0.94378 1.155742,0.753692 1.5375,1.125153 1.613705,1.570183 0.126934,0.741275 -0.120184,1.70918 -0.733319,2.872235 -0.394758,0.748816 -0.550429,0.873216 -1.246408,0.996035 -0.485495,0.08568 -0.496611,0.08425 -0.933444,-0.119656 -0.480301,-0.224197 -1.187151,-0.817095 -1.57068,-1.317466 -0.453847,-0.592114 -0.808061,-1.334467 -1.207566,-2.530777 -0.05431,-0.162629 -0.23374,0.0056 -0.301717,0.282705 -0.03807,0.155103 -0.101891,0.323655 -0.141906,0.374541 -0.04457,0.05669 -0.0734,0.555185 -0.07442,1.287033 -0.002,1.423254 0.0917,1.921621 0.52136,2.773608 0.602663,1.195019 1.489142,2.055272 2.792164,2.709557 0.429512,0.21567 0.878862,0.504707 0.907469,0.583708 0.0092,0.02548 -0.0074,0.08631 -0.03698,0.13517 -0.08584,0.141913 -0.672341,-0.100925 -1.676867,-0.694315 -0.486963,-0.287653 -0.897914,-0.509943 -0.91323,-0.493982 -0.04923,0.05132 0.383341,0.605368 0.65596,0.840186 0.625566,0.538821 1.375307,0.882581 2.550217,1.169286 0.936307,0.228478 1.091422,0.223543 1.383707,-0.04402 z m 11.294876,-0.311886 c 0.0184,-0.08411 0.0306,-0.624772 0.02711,-1.201479 -0.006,-0.987153 -0.01635,-1.067704 -0.175803,-1.375519 -0.123641,-0.238565 -0.253764,-0.373053 -0.481293,-0.497446 -0.171512,-0.09376 -0.495486,-0.340737 -0.719946,-0.548822 -0.331257,-0.307094 -0.430697,-0.36564 -0.528058,-0.310908 -0.15428,0.08673 -0.640237,0.930578 -0.872953,1.51585 -0.170109,0.427826 -0.17569,0.60155 -0.01922,0.598303 0.03716,-7.65e-4 0.415307,0.335586 0.840315,0.74746 0.582073,0.564088 0.890816,0.807605 1.251282,0.986939 0.562722,0.279959 0.634085,0.288964 0.678569,0.08562 z m -1.625791,-0.292958 c -0.132794,-0.111802 -0.45003,-0.440298 -0.704966,-0.729986 -0.254938,-0.289689 -0.476116,-0.513582 -0.491506,-0.497541 -0.01539,0.01605 0.03529,0.164541 0.112619,0.329995 0.158262,0.338617 0.61256,0.792278 0.976555,0.975193 0.350525,0.176149 0.381835,0.153484 0.107301,-0.07766 z m -5.731984,-5.52696 c -0.101592,-0.165393 -0.166792,-0.331104 -0.144886,-0.368248 0.09744,-0.165243 0.342317,-0.04989 0.758504,0.357326 0.714123,0.698726 0.966998,0.57105 1.499008,-0.756832 l 0.277607,-0.692899 -0.190753,-0.346644 c -0.104916,-0.190652 -0.594486,-0.773813 -1.087933,-1.295909 -0.49345,-0.522096 -0.915337,-1.027164 -0.937532,-1.122375 -0.14291,-0.613059 -0.324128,-0.782761 -0.643909,-0.602989 -0.16704,0.0939 -0.562644,0.696465 -0.890667,1.356604 -0.215743,0.43418 -0.244713,0.552412 -0.236177,0.963884 0.0083,0.398709 0.04792,0.545296 0.26457,0.978093 0.45746,0.913867 1.420408,2.14147 1.493957,1.90455 0.01258,-0.04062 -0.0602,-0.209168 -0.161789,-0.374561 z m -7.486426,-0.622585 c -0.452865,-0.326415 -0.844222,-0.625675 -0.869682,-0.665024 -0.02546,-0.03935 -0.0054,-0.113007 0.04435,-0.163688 0.07597,-0.07721 0.191957,-0.02024 0.715695,0.351604 0.692072,0.491343 1.117604,0.704199 1.519154,0.759895 0.240179,0.03331 0.2937,0.01166 0.536498,-0.217013 0.332774,-0.313418 0.440674,-0.608582 0.585237,-1.600882 0.110692,-0.759789 0.110315,-0.779891 -0.01775,-0.952023 -0.255398,-0.343366 -1.08399,-1.032377 -1.824684,-1.517301 -0.413197,-0.270514 -0.989908,-0.676936 -1.281581,-0.90316 -0.291673,-0.226226 -0.543204,-0.38846 -0.558958,-0.36052 -0.01574,0.02795 -0.130918,0.39271 -0.255918,0.810603 -0.40382,1.349998 -0.424529,2.056675 -0.08513,2.904699 0.558433,1.395297 1.289646,2.108663 2.195449,2.141863 0.06637,0.0024 -0.249869,-0.262643 -0.702734,-0.589058 z m 8.264357,-24.903704 c 0.319923,-0.04922 0.370872,-0.08213 0.551053,-0.35601 0.109203,-0.165979 0.437145,-0.587311 0.728775,-0.936289 0.784202,-0.93841 1.238724,-1.683467 1.23176,-2.019115 -0.0026,-0.124824 -0.313345,-0.07877 -1.055253,0.156307 -0.445695,0.141235 -0.506532,0.146845 -0.601755,0.05549 -0.09523,-0.09135 -0.05653,-0.126035 0.382642,-0.343078 0.415329,-0.205254 0.562057,-0.242977 0.978723,-0.251623 l 0.490149,-0.01017 -0.0042,-0.208937 c -0.0082,-0.40572 -0.537915,-0.46377 -1.365989,-0.149661 l -0.513264,0.194699 -0.813992,1.268548 c -1.075925,1.676747 -1.361436,2.223381 -1.505518,2.882423 l -0.03924,0.179541 0.591805,-0.203953 c 0.325492,-0.112174 0.750436,-0.228354 0.944317,-0.258178 z m 11.186694,22.368063 c -0.06176,-0.15146 0.151044,-0.690191 0.380085,-0.962234 0.260429,-0.309323 0.601487,-0.511223 1.419606,-0.840382 0.572545,-0.230356 0.724659,-0.326085 1.036954,-0.652589 0.33903,-0.354456 0.378402,-0.430913 0.534619,-1.038188 0.09276,-0.360553 0.186149,-0.781797 0.2075,-0.936104 0.03382,-0.243827 0.123938,-0.410663 0.182599,-0.338038 0.01035,0.01282 0.0096,0.529076 -0.0018,1.147249 -0.01911,1.040528 -0.03382,1.152359 -0.198135,1.506639 -0.274013,0.590795 -0.712507,0.895141 -2.025561,1.405886 -0.377804,0.146956 -0.853651,0.389221 -1.057438,0.538371 -0.421802,0.308711 -0.421662,0.308662 -0.478451,0.169379 z m 5.772721,-7.598393 c -0.005,-0.24339 0.176154,-0.51136 0.539308,-0.797564 0.284308,-0.224063 0.52845,-0.33302 1.223748,-0.546132 0.477717,-0.146423 1.043121,-0.348945 1.25645,-0.45005 0.450802,-0.213648 0.929727,-0.70932 1.043628,-1.080126 0.09546,-0.310766 0.200523,-0.328234 0.206549,-0.03434 0.0077,0.370426 -0.328358,1.002868 -0.755973,1.423144 -0.650311,0.639142 -0.944456,0.80903 -2.048264,1.183008 -1.342357,0.454798 -1.461766,0.479411 -1.465445,0.302066 z m 3.887124,-6.892061 c -0.08008,-0.409756 -0.06465,-0.602964 0.07008,-0.877877 0.273944,-0.558974 0.811632,-0.936677 1.93067,-1.356223 0.86567,-0.324555 1.240964,-0.528599 1.612138,-0.876502 0.311334,-0.291821 0.471979,-0.342502 0.475843,-0.150125 8.92e-4,0.0443 -0.08139,0.264942 -0.182846,0.490318 -0.313314,0.695998 -0.771897,1.09841 -2.244233,1.969334 -0.409074,0.241979 -0.894164,0.577131 -1.077984,0.744785 -0.413216,0.376884 -0.519027,0.387087 -0.58367,0.05629 z M 84.40753,50.586285 c -0.294282,-0.282313 1.02429,-1.104975 4.797944,-2.993471 1.252192,-0.626649 2.691803,-1.382676 3.199131,-1.680064 0.507329,-0.297384 0.966564,-0.541614 1.020514,-0.542734 0.333842,-0.0069 -0.241794,0.575221 -1.693086,1.712249 -0.567556,0.444654 -1.241383,0.984792 -1.497387,1.200306 -0.457947,0.385509 -0.489924,0.399729 -1.97765,0.879367 -1.473673,0.475105 -2.731927,0.959895 -3.370595,1.298646 -0.335063,0.177721 -0.405405,0.196185 -0.478871,0.125701 z m 5.012423,3.442647 c -0.29428,-0.282313 1.024289,-1.104975 4.797944,-2.99347 1.252191,-0.626651 2.691801,-1.382677 3.19913,-1.680064 0.507329,-0.297384 0.966564,-0.541615 1.020514,-0.542734 0.333843,-0.0069 -0.241794,0.575221 -1.693085,1.712248 -0.567556,0.444655 -1.241385,0.984793 -1.497388,1.200307 -0.457947,0.385508 -0.489923,0.399729 -1.977644,0.879366 -1.473676,0.475106 -2.731932,0.959897 -3.370597,1.298645 -0.335062,0.177722 -0.405407,0.196187 -0.478874,0.125702 z" fill="#ffffff"></path></g></svg>