<svg xmlns="http://www.w3.org/2000/svg" xmlns:xlink="http://www.w3.org/1999/xlink" fill="#ffffff" height="993.1" preserveAspectRatio="xMidYMid meet" viewBox="0.0 -0.0 500.0 993.1" width="500"><defs><clipPath id="a"><path d="M 0 122 L 500 122 L 500 993.078125 L 0 993.078125 Z M 0 122"></path></clipPath></defs><g><g id="change1_1"><path d="M 336.542969 312.609375 C 339.875 350.691406 311.707031 384.261719 273.625 387.59375 C 235.542969 390.925781 201.972656 362.753906 198.640625 324.675781 C 195.308594 286.59375 223.480469 253.019531 261.558594 249.691406 C 299.640625 246.359375 333.210938 274.527344 336.542969 312.609375"></path></g><g clip-path="url(#a)" id="change1_12"><path d="M 486.113281 163.636719 C 481.148438 160.671875 476.308594 159.53125 471.863281 159.546875 C 467.507812 159.558594 464.144531 156.28125 464.386719 151.929688 L 465.667969 128.710938 C 465.851562 125.394531 463.28125 122.679688 459.960938 122.679688 L 459.632812 122.679688 C 456.472656 122.679688 453.824219 125.179688 453.644531 128.367188 L 451.808594 161.890625 C 451.566406 166.074219 449.910156 169.957031 447.5625 173.417969 C 445.125 177.058594 443.078125 183.257812 442.839844 188.042969 L 436.9375 295.707031 C 436.710938 299.859375 434.769531 303.734375 431.585938 306.410156 L 340.460938 382.886719 C 331 390.828125 319.324219 395.664062 307.023438 396.742188 L 221.269531 404.253906 C 202.082031 405.933594 184.863281 416.695312 174.9375 433.199219 L 118.796875 526.578125 C 117.164062 529.296875 114.84375 531.535156 112.070312 533.070312 L 14.980469 586.839844 C -18.109375 605.167969 9.238281 655.398438 42.691406 636.871094 L 146.109375 579.59375 C 153.503906 575.496094 159.691406 569.527344 164.046875 562.28125 L 199.207031 503.800781 L 213.695312 669.410156 L 213.695312 817.414062 C 213.695312 820.574219 213.28125 823.71875 212.464844 826.765625 L 180.578125 945.714844 C 167.546875 994.328125 240.359375 1013.203125 253.230469 965.191406 L 286.878906 839.636719 C 288.242188 834.554688 288.929688 829.316406 288.929688 824.058594 L 288.929688 678.484375 C 288.929688 673.804688 292.507812 669.898438 297.171875 669.492188 C 302.449219 669.03125 306.988281 673.1875 306.988281 678.484375 L 306.988281 954.214844 C 306.988281 974.925781 323.191406 992.695312 343.898438 993.074219 C 364.996094 993.457031 382.21875 976.472656 382.21875 955.460938 L 382.21875 662.050781 L 362.695312 438.898438 L 362.699219 438.902344 L 476.332031 343.527344 C 486.527344 334.96875 492.726562 322.574219 493.453125 309.28125 L 499.957031 190.632812 C 500.527344 179.796875 495.441406 169.175781 486.113281 163.636719"></path></g><g id="change1_2"><path d="M 284.148438 171.457031 L 251.035156 171.457031 C 250.207031 171.457031 249.535156 170.785156 249.535156 169.957031 L 249.535156 163.933594 L 285.648438 163.933594 L 285.648438 169.957031 C 285.648438 170.785156 284.976562 171.457031 284.148438 171.457031"></path></g><g id="change1_3"><path d="M 282.644531 185 L 252.539062 185 C 251.710938 185 251.039062 184.328125 251.039062 183.5 L 251.039062 177.476562 L 284.144531 177.476562 L 284.144531 183.5 C 284.144531 184.328125 283.472656 185 282.644531 185"></path></g><g id="change1_4"><path d="M 267.59375 65.378906 C 246.472656 65.378906 229.332031 82.519531 229.332031 103.636719 C 229.332031 124.804688 249.535156 141.375 249.535156 157.914062 L 285.648438 157.914062 C 285.648438 141.261719 305.851562 124.910156 305.851562 103.636719 C 305.851562 82.519531 288.710938 65.378906 267.59375 65.378906"></path></g><g id="change1_5"><path d="M 311.878906 131.679688 L 312.769531 130.136719 L 360.824219 153.765625 L 356.371094 161.480469 L 311.878906 131.679688"></path></g><g id="change1_6"><path d="M 318.613281 96.988281 L 318.304688 95.234375 L 370.308594 82.445312 L 371.855469 91.21875 L 318.613281 96.988281"></path></g><g id="change1_7"><path d="M 301.476562 66.085938 L 300.109375 64.941406 L 331.730469 21.71875 L 338.550781 27.441406 L 301.476562 66.085938"></path></g><g id="change1_8"><path d="M 268.484375 53.429688 L 266.703125 53.429688 L 263.140625 -0.00390625 L 272.046875 -0.00390625 L 268.484375 53.429688"></path></g><g id="change1_9"><path d="M 235.074219 64.941406 L 233.710938 66.085938 L 196.632812 27.441406 L 203.457031 21.71875 L 235.074219 64.941406"></path></g><g id="change1_10"><path d="M 216.878906 95.234375 L 216.570312 96.988281 L 163.328125 91.21875 L 164.875 82.445312 L 216.878906 95.234375"></path></g><g id="change1_11"><path d="M 222.414062 130.136719 L 223.304688 131.679688 L 178.8125 161.480469 L 174.359375 153.765625 L 222.414062 130.136719"></path></g></g></svg>