<svg xmlns="http://www.w3.org/2000/svg" xmlns:xlink="http://www.w3.org/1999/xlink" fill="#ffffff" height="128.3" preserveAspectRatio="xMidYMid meet" viewBox="-0.3 -0.3 128.2 128.3" width="128.2"><g id="change1_1"><path d="M110.2,73.9c-1.6-1.6-4.1-1.6-5.6,0l-1.4,1.4L90.4,62.6c4.8-5.4,7.4-12.4,7.4-19.7c0-8-3.1-15.5-8.8-21.1 C83.4,16.1,75.9,13,67.9,13s-15.5,3.1-21.1,8.8C41.1,27.4,38,34.9,38,42.9s3.1,15.5,8.8,21.1c5.6,5.6,13.2,8.8,21.1,8.8 c7.3,0,14.2-2.6,19.7-7.4l12.7,12.7l-1.4,1.4c-1.6,1.6-1.6,4.1,0,5.6l15.5,15.5c1.5,1.5,3.5,2.3,5.6,2.3s4.1-0.8,5.6-2.3 c1.5-1.5,2.3-3.5,2.3-5.6s-0.8-4.1-2.3-5.6L110.2,73.9z M49.6,61.2C44.7,56.3,42,49.8,42,42.9s2.7-13.4,7.6-18.3 C54.5,19.7,61,17,67.9,17s13.4,2.7,18.3,7.6s7.6,11.4,7.6,18.3s-2.7,13.4-7.6,18.3s-11.4,7.6-18.3,7.6S54.5,66.1,49.6,61.2z M122.8,97.8c-1.5,1.5-4.1,1.5-5.6,0l-15.5-15.5l2.8-2.8c0,0,0,0,0,0c0,0,0,0,0,0l2.8-2.8l15.5,15.5C123.6,93,124,94,124,95 S123.6,97.1,122.8,97.8z"></path></g><g id="change1_2"><circle cx="119.7" cy="94.7" r="2" transform="rotate(-45.001 119.67 94.672)"></circle></g><g id="change1_3"><path d="M83.4,27.4c-4.1-4.1-9.6-6.4-15.5-6.4s-11.4,2.3-15.5,6.4c-8.5,8.5-8.5,22.5,0,31c4.3,4.3,9.9,6.4,15.5,6.4 c5.6,0,11.2-2.1,15.5-6.4C91.9,49.8,91.9,35.9,83.4,27.4z M80.6,55.6c-7,7-18.4,7-25.3,0c-7-7-7-18.4,0-25.3 c3.4-3.4,7.9-5.3,12.7-5.3c2.1,0,4.1,0.4,6,1.1c1.9,0.9,3.6,1.9,5.3,3c0.5,0.4,0.9,0.8,1.3,1.2C87.6,37.2,87.6,48.6,80.6,55.6z"></path></g><g id="change1_4"><path d="M103.2,28.8l5.4-2.7c1-0.5,1.4-1.7,0.9-2.7c-0.5-1-1.7-1.4-2.7-0.9l-5.4,2.7c-1,0.5-1.4,1.7-0.9,2.7 c0.3,0.7,1.1,1.1,1.8,1.1C102.6,29,102.9,29,103.2,28.8z"></path></g><g id="change1_5"><path d="M102.8,57.9l5.7,1.9c0.2,0.1,0.4,0.1,0.6,0.1c0.8,0,1.6-0.5,1.9-1.4c0.4-1-0.2-2.2-1.3-2.5l-5.7-1.9c-1-0.4-2.2,0.2-2.5,1.3 C101.2,56.4,101.8,57.6,102.8,57.9z"></path></g><g id="change1_6"><path d="M85.5,76.4c-0.5-1-1.7-1.4-2.7-0.9c-1,0.5-1.4,1.7-0.9,2.7l2.7,5.4c0.3,0.7,1.1,1.1,1.8,1.1c0.3,0,0.6-0.1,0.9-0.2 c1-0.5,1.4-1.7,0.9-2.7L85.5,76.4z"></path></g><g id="change1_7"><path d="M52.2,86c0.2,0.1,0.4,0.1,0.6,0.1c0.8,0,1.6-0.5,1.9-1.4l1.9-5.7c0.4-1-0.2-2.2-1.3-2.5c-1-0.4-2.2,0.2-2.5,1.3l-1.9,5.7 C50.6,84.5,51.2,85.7,52.2,86z"></path></g><g id="change1_8"><path d="M28.1,63.4c0.3,0,0.6-0.1,0.9-0.2l5.4-2.7c1-0.5,1.4-1.7,0.9-2.7c-0.5-1-1.7-1.4-2.7-0.9l-5.4,2.7c-1,0.5-1.4,1.7-0.9,2.7 C26.6,63,27.3,63.4,28.1,63.4z"></path></g><g id="change1_9"><path d="M32.3,31.8c0.8,0,1.6-0.5,1.9-1.4c0.4-1-0.2-2.2-1.3-2.5l-5.7-1.9c-1-0.4-2.2,0.2-2.5,1.3c-0.4,1,0.2,2.2,1.3,2.5l5.7,1.9 C31.9,31.7,32.1,31.8,32.3,31.8z"></path></g><g id="change1_10"><path d="M48.5,1.3c-1,0.5-1.4,1.7-0.9,2.7l2.7,5.4c0.3,0.7,1.1,1.1,1.8,1.1c0.3,0,0.6-0.1,0.9-0.2c1-0.5,1.4-1.7,0.9-2.7l-2.7-5.4 C50.7,1.2,49.5,0.8,48.5,1.3z"></path></g><g id="change1_11"><path d="M83.6,0.1c-1-0.4-2.2,0.2-2.5,1.3L79.1,7c-0.4,1,0.2,2.2,1.3,2.5c0.2,0.1,0.4,0.1,0.6,0.1c0.8,0,1.6-0.5,1.9-1.4l1.9-5.7 C85.2,1.6,84.6,0.5,83.6,0.1z"></path></g><g id="change1_12"><path d="M74.4,35.5L64.7,46l-3.3-3.6c-0.8-0.8-2-0.9-2.8-0.1c-0.8,0.8-0.9,2-0.1,2.8l4.8,5.1c0,0,0,0,0.1,0c0,0,0,0,0,0.1 c0,0,0.1,0.1,0.1,0.1c0,0,0.1,0.1,0.1,0.1c0.1,0,0.1,0.1,0.2,0.1c0,0,0.1,0.1,0.1,0.1c0.1,0,0.2,0.1,0.2,0.1c0,0,0.1,0,0.1,0 c0.1,0,0.3,0,0.4,0c0.1,0,0.3,0,0.4,0c0,0,0.1,0,0.1,0c0.1,0,0.2,0,0.3-0.1c0,0,0.1,0,0.1-0.1c0.1,0,0.1-0.1,0.2-0.1 c0,0,0.1-0.1,0.1-0.1c0,0,0.1-0.1,0.1-0.1c0,0,0,0,0-0.1c0,0,0,0,0.1,0l11.2-12c0.8-0.8,0.7-2.1-0.1-2.8 C76.5,34.7,75.2,34.7,74.4,35.5z"></path></g><g id="change1_13"><path d="M92.1,80.8c0.1-0.2,0.3-0.4,0.4-0.6c0.5-0.8,1.1-1.7,1.6-2.5l-2.9-2.9c0,0.1-0.1,0.1-0.1,0.2c-0.4,0.6-0.7,1.1-1.1,1.6 l1.8,3.5C91.9,80.3,92,80.5,92.1,80.8z"></path></g><g id="change1_14"><path d="M95.8,62.2c0,0,0,0.1,0,0.1l3.5,3.5c0.3-1.6,0.6-3.2,0.7-4.9c-0.9-0.6-1.5-1.5-1.9-2.4C97.3,59.8,96.6,61,95.8,62.2z"></path></g><g id="change1_15"><path d="M39.8,23.9c1.2-1.8,2.6-3.4,4.1-5c0,0,0.1-0.1,0.1-0.1c-3,0.5-7.8,1.7-12.8,4.2l3,1c0.7,0.3,1.4,0.6,2,1.1 C37.5,24.7,38.7,24.3,39.8,23.9z"></path></g><g id="change1_16"><path d="M3.8,83.4c0.1,0,0.3,0.1,0.4,0.1l0.4,0.1c0.7,0.2,1.4,0.5,1.8,0.8c0,0.5-0.6,1.8-0.9,2.5c-0.9,2-2.3,5.1,0.3,7.1 c0.4,0.3,0.8,0.5,1.3,0.6c-0.3,0.5-0.6,1.1-0.6,1.8c0.1,2.3,2.5,2.8,3.5,3c0,0,0,0,0,0c0,0.6-0.1,1.5-0.2,2.3 c-0.3,2.2-0.7,5,0.1,7.6c0.5,1.6,1.5,3,3,4.1c1.7,1.2,3.9,1.8,6.1,1.6c7.5-0.6,15.2-3.1,22.6-7.2c0.4,6.7-0.5,11.9-5,16.9 c-0.5,0.6-0.6,1.4-0.3,2.1c0.3,0.7,1,1.2,1.8,1.2h46c0.9,0,1.7-0.6,1.9-1.4c0.2-0.9-0.1-1.8-0.8-2.2c-3-1.9-4.8-4.8-5.5-8.5 c-1.4-7.8,2.3-18.8,7.2-27.1c-0.1,0-0.3,0-0.4,0c-1.3,0-2.5-0.4-3.5-1.2c-4.6,8.2-8.9,19.8-7.2,29c0.5,2.9,1.6,5.4,3.2,7.5H42.1 c3.5-5.5,4-11.4,3.3-18.5c3.9-2.6,5.7-5.3,5.5-8c-0.1-1.1-1.1-1.9-2.2-1.8c-1.1,0.1-1.9,1.1-1.8,2.2c0.1,1-1.3,3.1-5.6,5.5l-0.3,0.2 c-7.2,4.2-14.9,6.8-22.3,7.4c-1.3,0.1-2.5-0.2-3.4-0.8c-0.7-0.5-1.3-1.2-1.5-2c-0.5-1.7-0.2-4,0-6c0.3-2,0.5-3.6-0.1-4.9 c-0.4-1-1.3-1.4-2.1-1.6c0.8-0.8,1.5-1.7,1.3-3c-0.4-1.8-2.3-1.8-3.5-1.9c-0.3,0-0.7,0-1,0c0.1-0.5,0.6-1.5,0.8-2.1 c0.9-2,2.3-5,0-7.1c-1-0.9-2.2-1.3-3.2-1.7l-0.4-0.1c-0.2-0.1-0.3-0.1-0.5-0.2c-0.4-0.1-0.9-0.3-1-0.4c0,0,0-0.1,0-0.2 c0.6-1.3,1.6-2.6,2.8-4.1c1.1-1.3,2.3-2.9,3.4-4.7c0.2-0.4,0.4-0.7,0.6-1.1c1.8-3,3.8-6.3,3.1-9.9c-1-5.5-0.5-10.1,1.8-15 c2.2-4.6,5-8.3,8-11.2c-1.2-0.7-2.2-1.7-2.7-3c-3.4,3.2-6.5,7.3-8.9,12.4C9.5,48.1,8.9,53.7,10,60c0.4,2-1.1,4.6-2.6,7.1 c-0.2,0.4-0.5,0.8-0.7,1.1c-0.9,1.5-2,2.9-3,4.2c-1.3,1.6-2.6,3.2-3.4,5.1c-0.6,1.3-0.4,2.8,0.3,3.9C1.5,82.7,2.9,83.1,3.8,83.4z"></path></g></svg>