<svg xmlns="http://www.w3.org/2000/svg" xmlns:xlink="http://www.w3.org/1999/xlink" data-name="Layer 1" fill="#ffffff" height="61.7" preserveAspectRatio="xMidYMid meet" viewBox="6.0 1.2 52.0 61.7" width="52"><g id="change1_1"><path d="M58,45.861c0-4.76-6.085-7.489-10.663-9.128l-.674,1.883C52.946,40.865,56,43.235,56,45.861c0,2.827-3.358,5.268-10.565,7.683-4.052,1.347-8.914,2.55-13.615,3.712-4.781,1.183-9.726,2.406-13.887,3.8l.634,1.9c4.085-1.365,8.99-2.577,13.733-3.751s9.639-2.384,13.768-3.757C51.623,53.58,58,50.808,58,45.861Z" fill="inherit"></path></g><g id="change1_2"><path d="M42.809 17.457H45.608999999999995V19.457H42.809z" fill="inherit" transform="rotate(-45 44.21 18.458)"></path></g><g id="change1_3"><path d="M31 12H33V14.8H31z" fill="inherit"></path></g><g id="change1_4"><path d="M23.591,32.61a1.677,1.677,0,0,0,.187,1.311l1.2,1.992a1.762,1.762,0,0,0,2.365.621l.314-.174a7.439,7.439,0,0,0,1.388.776v.281a1.736,1.736,0,0,0,1.75,1.716H33.2a1.736,1.736,0,0,0,1.75-1.716v-.281a7.464,7.464,0,0,0,1.388-.776l.315.174a1.76,1.76,0,0,0,2.364-.621l1.2-1.992a1.677,1.677,0,0,0,.187-1.311,1.733,1.733,0,0,0-.834-1.061l-.269-.148a6.6,6.6,0,0,0,0-1.469l.268-.148a1.73,1.73,0,0,0,.835-1.06,1.675,1.675,0,0,0-.187-1.312l-1.2-1.993a1.78,1.78,0,0,0-2.363-.62l-.315.174a7.434,7.434,0,0,0-1.388-.775v-.281A1.736,1.736,0,0,0,33.2,22.2H30.8a1.736,1.736,0,0,0-1.75,1.717V24.2a7.434,7.434,0,0,0-1.388.775l-.314-.173a1.781,1.781,0,0,0-2.365.62l-1.2,1.992a1.675,1.675,0,0,0-.187,1.312,1.729,1.729,0,0,0,.833,1.059l.27.149a6.6,6.6,0,0,0,0,1.469l-.269.148A1.733,1.733,0,0,0,23.591,32.61Zm3.062-1.943a4.76,4.76,0,0,1,.049-.679,1.7,1.7,0,0,0-.875-1.715l-.175-.1.918-1.52.247.135a1.8,1.8,0,0,0,1.929-.137A5.385,5.385,0,0,1,29.93,26a1.731,1.731,0,0,0,1.117-1.6v-.2h1.906v.2A1.731,1.731,0,0,0,34.07,26a5.385,5.385,0,0,1,1.184.658,1.8,1.8,0,0,0,1.928.138l.248-.136.918,1.52-.173.095a1.7,1.7,0,0,0-.877,1.716,4.722,4.722,0,0,1,0,1.357,1.7,1.7,0,0,0,.876,1.716l.174.095-.918,1.52-.248-.136a1.806,1.806,0,0,0-1.929.139,5.37,5.37,0,0,1-1.183.657,1.733,1.733,0,0,0-1.117,1.6v.2H31.047v-.2a1.733,1.733,0,0,0-1.117-1.6,5.362,5.362,0,0,1-1.184-.658,1.808,1.808,0,0,0-1.929-.138l-.247.136-.918-1.52.174-.095a1.7,1.7,0,0,0,.876-1.716A4.736,4.736,0,0,1,26.653,30.667Z" fill="inherit"></path></g><g id="change1_5"><path d="M32,34a3.334,3.334,0,1,0-3.333-3.333A3.337,3.337,0,0,0,32,34Zm0-4.667a1.334,1.334,0,1,1-1.333,1.334A1.335,1.335,0,0,1,32,29.333Z" fill="inherit"></path></g><g id="change1_6"><path d="M25.4,43.075V48.4a6.6,6.6,0,1,0,13.2,0V43.074a14.136,14.136,0,0,0,7.467-12.407A14.068,14.068,0,0,0,31.322,16.616,14.058,14.058,0,0,0,25.4,43.075ZM32,53a4.6,4.6,0,0,1-4.3-3H36.3A4.6,4.6,0,0,1,32,53Zm4.6-5H27.4V45.667h9.2ZM19.983,29.557A12.083,12.083,0,0,1,31.416,18.614c.2-.01.393-.014.588-.014A12.066,12.066,0,0,1,44.067,30.667a12.126,12.126,0,0,1-6.9,10.889,1,1,0,0,0-.57.9v1.208H27.4V42.459a1,1,0,0,0-.57-.9A11.991,11.991,0,0,1,19.983,29.557Z" fill="inherit"></path></g><g id="change1_7"><path d="M18.791 17.057H20.791V19.857H18.791z" fill="inherit" transform="rotate(-45 19.79 18.458)"></path></g><g id="change1_8"><path d="M50.248,2.759,44.594,1.331a1,1,0,0,0-1.2,1.259l.582,1.929c-3.732,1.16-8,2.217-12.151,3.244-4.783,1.183-9.728,2.406-13.889,3.8C12.377,13.41,6,16.169,6,21.115c0,4.569,5.505,7.186,9.646,8.757L16.354,28C10.733,25.869,8,23.616,8,21.115c0-2.784,3.456-5.29,10.567-7.659C22.653,12.091,27.559,10.877,32.3,9.7c4.171-1.032,8.465-2.1,12.248-3.27l.574,1.9a1,1,0,0,0,.737.687,1.029,1.029,0,0,0,.22.024,1,1,0,0,0,.74-.328L50.743,4.4a1,1,0,0,0-.5-1.642ZM46.529,6.065,45.816,3.7l2.326.588Z" fill="inherit"></path></g></svg>