<svg xmlns="http://www.w3.org/2000/svg" xmlns:xlink="http://www.w3.org/1999/xlink" fill="#ffffff" height="128" preserveAspectRatio="xMidYMid meet" viewBox="0.0 0.0 128.0 128.0" width="128"><g id="change1_1"><path d="M113,10c0,2.8,2.2,5,5,5c0,0,0,0,0,0c2.7,0,5-2.2,5-5c0-1.3-0.5-2.6-1.5-3.5C120.6,5.5,119.4,5,118,5c0,0,0,0,0,0 C115.3,5,113,7.2,113,10z" fill="inherit"></path></g><g id="change1_2"><path d="M10,5C8.6,5,7.4,5.5,6.5,6.5C5.5,7.4,5,8.7,5,10c0,2.8,2.3,5,5,5c0,0,0,0,0,0c2.8,0,5-2.3,5-5C15,7.2,12.7,5,10,5 C10,5,10,5,10,5z" fill="inherit"></path></g><g id="change1_3"><path d="M98,38h-8c-2.2,0-4,1.8-4,4v84c0,1.1,0.9,2,2,2h12c1.1,0,2-0.9,2-2V42C102,39.8,100.2,38,98,38z M98,124h-8V42h8V124z" fill="inherit"></path></g><g id="change1_4"><path d="M78,58h-8c-2.2,0-4,1.8-4,4v64c0,1.1,0.9,2,2,2h12c1.1,0,2-0.9,2-2V62C82,59.8,80.2,58,78,58z M78,124h-8V62h8V124z" fill="inherit"></path></g><g id="change1_5"><path d="M58,78h-8c-2.2,0-4,1.8-4,4v44c0,1.1,0.9,2,2,2h12c1.1,0,2-0.9,2-2V82C62,79.8,60.2,78,58,78z M58,124h-8V82h8V124z" fill="inherit"></path></g><g id="change1_6"><path d="M38,98h-8c-2.2,0-4,1.8-4,4v24c0,1.1,0.9,2,2,2h12c1.1,0,2-0.9,2-2v-24C42,99.8,40.2,98,38,98z M38,124h-8v-22h8V124z" fill="inherit"></path></g><g id="change1_7"><path d="M20.2,86.2c-1,0.4-1.5,1.6-1.1,2.6c0.3,0.8,1.1,1.2,1.8,1.2c0.3,0,0.5,0,0.8-0.2c11.8-4.9,39.7-19.4,51-50l0.2,1 c0.2,0.9,1,1.6,1.9,1.6c0.1,0,0.3,0,0.5-0.1c1.1-0.2,1.7-1.3,1.5-2.4L75,31.6c-0.2-0.7-0.7-1.3-1.4-1.5c-0.7-0.2-1.4,0-1.9,0.4 l-6.4,5.9c-0.8,0.7-0.9,2-0.1,2.8c0.7,0.8,2,0.9,2.8,0.1l1.1-1C58.4,67.6,31.6,81.4,20.2,86.2z" fill="inherit"></path></g><g id="change1_8"><path d="M78.8,45.1C79.9,46,81,47,82,48.2v-5.6c-0.4-0.3-0.7-0.6-1.1-0.9C80.6,43,79.8,44.2,78.8,45.1z" fill="inherit"></path></g><g id="change1_9"><path d="M106,90.9v21.5c0.3-0.2,0.5-0.4,0.7-0.7l5-5c2.8-2.8,3-7,0.6-9.5L106,90.9z" fill="inherit"></path></g><g id="change1_10"><path d="M121.7,53.3h-9.1c-1.3-5.8-3.6-11.3-6.7-16.2l6.4-6.4c2.5-2.5,2.2-6.7-0.6-9.5l-5-5c-1.5-1.5-3.4-2.3-5.3-2.3 c-1.6,0-3.1,0.6-4.2,1.7l-6.4,6.4C86,19,80.5,16.7,74.7,15.4V6.3c0-3.5-3.2-6.3-7.1-6.3h-7.1c-3.9,0-7.1,2.8-7.1,6.3v9.1 C47.5,16.7,42,19,37.2,22.1l-6.4-6.4c-1.1-1.1-2.7-1.7-4.2-1.7c-1.8,0-3.8,0.8-5.3,2.3l-5,5c-2.8,2.8-3,7-0.6,9.5l6.4,6.4 C19,42,16.7,47.5,15.4,53.3H6.3c-3.5,0-6.3,3.2-6.3,7.1v7.1c0,3.9,2.8,7.1,6.3,7.1h9.1c0.6,2.8,1.5,5.6,2.6,8.2 c0.2-0.1,0.5-0.3,0.8-0.4c0.7-0.3,12.3-7,18.4-10.6C36.4,69.4,36,66.7,36,64c0-14.4,10.9-26.3,24.9-27.8c0.3-1,0.8-1.9,1.7-2.7 l6.4-5.9c1.6-1.4,3.8-2,5.8-1.3c2,0.6,3.6,2.3,4.1,4.4l1.9,8.4c0.2,0.9,0.2,1.7,0,2.6c0.4,0.3,0.8,0.6,1.1,0.9V42c0-4.4,3.6-8,8-8h8 c4.4,0,8,3.6,8,8v48.7c3.1-4.8,5.4-10.2,6.6-16h9.1c3.5,0,6.3-3.2,6.3-7.1v-7.1C128,56.5,125.2,53.3,121.7,53.3z" fill="inherit"></path></g><g id="change1_11"><path d="M21,94c-0.3,0-0.6,0-0.9-0.1c0,0,0,0,0,0c0,0,0,0,0,0c-0.3,0-0.6-0.1-0.9-0.2l-3.5,3.5c-2.5,2.5-2.2,6.7,0.6,9.5l5,5 c0.2,0.2,0.5,0.4,0.7,0.6V102c0-4.4,3.6-8,8-8h8c1.5,0,2.8,0.4,4,1.1V83.5c-7.4,4.9-14.2,8.2-18.7,10C22.5,93.9,21.8,94,21,94z" fill="inherit"></path></g></svg>